<?xml version="1.0" standalone="no"?>
<!DOCTYPE svg PUBLIC "-//W3C//DTD SVG 20010904//EN"
 "http://www.w3.org/TR/2001/REC-SVG-20010904/DTD/svg10.dtd">
<svg version="1.0" xmlns="http://www.w3.org/2000/svg"
 width="1273.000000pt" height="1280.000000pt" viewBox="0 0 1273.000000 1280.000000"
 preserveAspectRatio="xMidYMid meet">
<metadata>
Created by potrace 1.15, written by Peter Selinger 2001-2017
</metadata>
<g transform="translate(0.000000,1280.000000) scale(0.100000,-0.100000)"
fill="#000000" stroke="none">
<path d="M6825 12731 c-58 -33 -187 -164 -301 -306 -219 -272 -670 -908 -756
-1065 -203 -370 -729 -1476 -1014 -2135 -177 -407 -387 -781 -1692 -3005 -706
-1204 -911 -1563 -1010 -1772 -133 -280 -497 -906 -1304 -2243 -249 -412 -454
-768 -560 -972 -95 -183 -127 -290 -135 -464 -9 -185 24 -280 110 -314 109
-44 436 -63 1287 -75 360 -5 855 -12 1100 -15 245 -4 798 -13 1230 -21 763
-14 5476 -39 7405 -39 l950 0 63 34 c106 57 192 175 227 306 29 113 19 169
-69 398 -161 415 -769 1826 -1159 2687 -63 140 -257 577 -430 970 -623 1416
-837 1889 -991 2190 -254 498 -271 535 -756 1635 -90 204 -239 519 -331 702
-178 351 -236 476 -424 908 -253 583 -637 1522 -730 1785 -93 264 -239 491
-461 715 -135 136 -162 146 -249 96z"/>
</g>
</svg>
